<?xml version="1.0" standalone="no"?>
<!DOCTYPE svg PUBLIC "-//W3C//DTD SVG 20010904//EN"
 "http://www.w3.org/TR/2001/REC-SVG-20010904/DTD/svg10.dtd">
<svg version="1.0" xmlns="http://www.w3.org/2000/svg"
 width="612.000000pt" height="408.000000pt" viewBox="0 0 612.000000 408.000000"
 preserveAspectRatio="xMidYMid meet">
<metadata>
Created by potrace 1.16, written by Peter Selinger 2001-2019
</metadata>
<g transform="translate(0.000000,408.000000) scale(0.100000,-0.100000)"
fill="#29C4FA" stroke="none">
<path d="M3059 2925 c24 -8 52 -21 61 -30 9 -8 21 -15 27 -15 13 0 127 -116
158 -162 92 -136 141 -354 109 -483 -15 -59 -10 -69 16 -35 118 155 133 387
34 535 -47 72 -98 116 -177 153 -77 37 -96 41 -197 47 l-75 5 44 -15z"/>
<path d="M2730 2861 c-74 -24 -136 -57 -189 -100 -45 -36 -151 -158 -151 -173
0 -4 19 6 42 22 44 32 116 67 152 74 12 2 41 9 66 15 198 47 502 -81 644 -271
59 -80 65 -74 41 45 -22 108 -74 206 -150 283 -50 50 -74 66 -142 92 -71 28
-95 32 -170 31 -56 0 -108 -7 -143 -18z"/>
<path d="M3491 2803 c8 -10 20 -25 28 -35 8 -9 26 -43 40 -75 32 -74 40 -239
15 -325 -40 -140 -131 -272 -238 -344 l-51 -34 34 0 c88 0 220 67 293 148 45
49 96 147 104 199 29 169 -30 330 -161 436 -57 47 -89 62 -64 30z"/>
<path d="M2635 2610 c-145 -32 -286 -150 -349 -291 -39 -91 -49 -152 -43 -273
6 -122 26 -194 85 -301 36 -67 79 -125 67 -90 -78 212 -21 423 161 596 156
146 355 228 531 217 73 -5 73 -5 56 15 -22 24 -108 73 -183 105 -44 19 -78 24
-170 27 -63 2 -133 0 -155 -5z"/>
<path d="M3755 2605 c55 -143 36 -309 -51 -446 -63 -101 -186 -193 -312 -234
-79 -25 -249 -18 -316 14 -50 23 -146 112 -146 135 0 7 -7 21 -16 32 -15 19
-15 19 -10 -1 3 -11 8 -35 11 -53 16 -95 117 -227 217 -285 74 -43 189 -70
273 -63 188 14 338 116 419 282 84 171 73 386 -29 571 -30 53 -53 81 -40 48z"/>
<path d="M2745 2297 c-156 -82 -279 -235 -306 -382 -63 -345 350 -654 781
-584 94 15 96 28 6 28 -185 0 -355 110 -450 291 -48 92 -69 178 -69 290 -1
139 33 246 110 353 21 28 29 47 21 47 -7 0 -49 -19 -93 -43z"/>
<path d="M2794 2025 c-9 -49 -10 -176 -1 -227 25 -142 130 -278 260 -338 61
-29 75 -32 164 -46 72 -11 198 14 290 56 65 30 98 54 157 113 40 41 81 88 90
105 l16 31 -74 -40 c-254 -137 -606 -59 -781 173 -41 55 -59 86 -104 193 -7
17 -10 14 -17 -20z"/>
</g>
</svg>
